<?xml version="1.0" encoding="iso-8859-1"?>
<!-- Generator: Adobe Illustrator 19.0.0, SVG Export Plug-In . SVG Version: 6.00 Build 0)  -->
<svg version="1.1" id="Layer_1" xmlns="http://www.w3.org/2000/svg" xmlns:xlink="http://www.w3.org/1999/xlink" x="0px" y="0px"
	 viewBox="0 0 512 512" style="enable-background:new 0 0 512 512;" xml:space="preserve">
<g>
	<path style="fill:#D1D4D1;" d="M218.453,192.853c-3.413,0-5.973-1.707-7.68-4.267c-0.853-0.853-0.853-1.707-1.707-2.56
		c-1.707-1.707-2.56-4.267-1.707-6.827c0.853-2.56,1.707-4.267,4.267-5.973c1.707-0.853,2.56-1.707,4.267-1.707
		c4.267-1.707,9.387,0,11.093,4.267c1.707,2.56,0.853,5.973-0.853,8.533c0,3.413-1.707,6.827-4.267,7.68
		C221.867,192,220.16,192.853,218.453,192.853"/>
	<path style="fill:#D1D4D1;" d="M219.307,215.04c-0.853,0-2.56,0-3.413-0.853c-4.267-1.707-5.973-6.827-4.267-11.093
		c0-0.853,0.853-1.707,0.853-2.56c0.853-4.267,5.973-7.68,10.24-5.973c4.267,0.853,7.68,5.973,5.973,10.24
		c-0.853,1.707-0.853,4.267-1.707,5.973C226.133,213.333,222.72,215.04,219.307,215.04 M202.24,229.547
		c-4.267,0-7.68-2.56-8.533-6.827s1.707-9.387,5.973-10.24c0.853,0,1.707-0.853,2.56-0.853c4.267-1.707,9.387,0,11.093,4.267
		c1.707,4.267,0,9.387-4.267,11.093c-1.707,0.853-4.267,1.707-5.973,1.707C203.947,229.547,203.093,229.547,202.24,229.547"/>
	<path style="fill:#D1D4D1;" d="M178.347,228.693c-0.853,0-2.56,0-3.413-0.853c-4.267-1.707-5.973-6.827-4.267-11.093
		c0.853-1.707,1.707-2.56,1.707-4.267c0.853-2.56,3.413-3.413,5.973-4.267c2.56-0.853,5.12,0,6.827,1.707
		c0.853,0.853,1.707,0.853,2.56,1.707c4.267,2.56,5.973,7.68,3.413,11.947c-1.707,3.413-5.12,4.267-7.68,4.267
		C181.76,227.84,180.053,228.693,178.347,228.693"/>
	<path style="fill:#D1D4D1;" d="M170.667,267.947c-4.267,0-8.533-3.413-8.533-8.533c0-0.853,0-2.56,0-3.413c0-1.707,0-3.413,0-5.12
		c0-5.12,4.267-8.533,9.387-7.68c5.12,0,8.533,4.267,7.68,9.387c0,1.707,0,2.56,0,4.267c0,0.853,0,1.707,0,3.413
		C179.2,263.68,175.787,267.947,170.667,267.947L170.667,267.947 M181.76,306.347c-2.56,0-5.973-1.707-7.68-4.267
		c-1.707-2.56-2.56-5.12-4.267-7.68c-1.707-4.267,0-9.387,4.267-11.093c4.267-1.707,9.387,0,11.093,4.267
		c0.853,2.56,1.707,4.267,3.413,6.827c2.56,4.267,0.853,9.387-3.413,11.947C184.32,306.347,182.613,306.347,181.76,306.347"/>
	<path style="fill:#D1D4D1;" d="M251.733,179.2c-4.267,0-8.533-3.413-8.533-7.68c0-5.12,3.413-8.533,7.68-8.533
		c2.56,0,5.973,0,8.533,0c5.12,0,8.533,4.267,8.533,8.533c0,5.12-4.267,8.533-8.533,8.533
		C256.853,179.2,254.293,179.2,251.733,179.2L251.733,179.2 M297.813,190.293c-1.707,0-2.56,0-4.267-0.853s-4.267-2.56-6.827-3.413
		c-4.267-1.707-5.973-6.827-4.267-11.093c1.707-4.267,6.827-5.973,11.093-4.267c2.56,0.853,5.12,2.56,7.68,4.267
		c4.267,2.56,5.12,7.68,3.413,11.947C303.787,188.587,301.227,190.293,297.813,190.293 M326.827,217.6
		c-2.56,0-5.12-1.707-6.827-3.413c-1.707-1.707-2.56-4.267-4.267-5.973c-2.56-3.413-2.56-9.387,1.707-11.947
		c3.413-2.56,9.387-2.56,11.947,1.707c1.707,2.56,3.413,4.267,5.12,6.827c2.56,4.267,1.707,9.387-2.56,11.947
		C330.24,216.747,328.533,217.6,326.827,217.6 M340.48,255.147c-4.267,0-7.68-3.413-8.533-7.68c0-2.56-0.853-5.12-0.853-6.827
		c-0.853-4.267,1.707-9.387,6.827-10.24c4.267-0.853,9.387,1.707,10.24,6.827c0.853,2.56,0.853,5.973,1.707,8.533
		c0.853,4.267-2.56,8.533-7.68,9.387C341.333,255.147,341.333,255.147,340.48,255.147 M336.213,294.4c-0.853,0-1.707,0-3.413-0.853
		c-4.267-1.707-6.827-6.827-5.12-11.093c0.853-2.56,1.707-4.267,2.56-6.827c0.853-4.267,5.973-6.827,10.24-5.973
		s6.827,5.973,5.973,10.24c-0.853,2.56-1.707,5.973-2.56,8.533C342.187,292.693,339.627,294.4,336.213,294.4 M313.173,327.68
		c-2.56,0-4.267-0.853-5.973-2.56c-3.413-3.413-2.56-8.533,0.853-11.947c1.707-1.707,3.413-3.413,5.12-5.12
		c3.413-3.413,8.533-3.413,11.947-0.853c3.413,3.413,3.413,8.533,0.853,11.947c-1.707,2.56-4.267,4.267-5.973,5.973
		C317.44,326.827,315.733,327.68,313.173,327.68 M209.067,335.36c-1.707,0-3.413-0.853-5.12-1.707
		c-2.56-1.707-5.12-3.413-6.827-5.12c-3.413-2.56-4.267-8.533-0.853-11.947c2.56-3.413,8.533-4.267,11.947-0.853
		c1.707,1.707,3.413,2.56,5.973,4.267c4.267,2.56,5.12,7.68,2.56,11.947C214.187,334.507,211.627,335.36,209.067,335.36
		 M278.187,347.307c-3.413,0-6.827-2.56-8.533-5.973c-0.853-4.267,1.707-9.387,5.973-10.24c2.56-0.853,4.267-1.707,6.827-2.56
		c4.267-1.707,9.387,0.853,11.093,5.12c1.707,4.267-0.853,9.387-5.12,11.093c-2.56,0.853-5.973,1.707-8.533,2.56
		C279.893,346.453,279.04,347.307,278.187,347.307 M246.613,349.013h-0.853c-2.56,0-5.973-0.853-8.533-1.707
		c-4.267-0.853-7.68-5.12-6.827-10.24c0.853-4.267,5.12-7.68,10.24-6.827c2.56,0.853,5.12,0.853,6.827,0.853
		c4.267,0.853,7.68,5.12,7.68,9.387C254.293,346.453,250.88,349.013,246.613,349.013"/>
	<path style="fill:#D1D4D1;" d="M386.56,58.88c-1.707,0-4.267-0.853-5.12-1.707c-3.413-3.413-4.267-8.533-0.853-11.947
		c0.853-0.853,0.853-1.707,1.707-2.56c0.853-1.707,3.413-3.413,5.12-4.267c2.56-0.853,4.267,0,6.827,0.853l2.56,3.413
		c4.267,2.56,5.12,7.68,2.56,11.947c-1.707,2.56-5.12,4.267-8.533,3.413C389.12,58.88,388.267,58.88,386.56,58.88"/>
	<path style="fill:#D1D4D1;" d="M348.16,59.733c-2.56,0-4.267-0.853-5.973-2.56c-1.707-1.707-2.56-3.413-3.413-5.12
		c-2.56-4.267-0.853-9.387,2.56-11.947c3.413-2.56,8.533-0.853,11.093,2.56c0.853,0.853,0.853,1.707,1.707,2.56
		c3.413,3.413,2.56,8.533-0.853,11.947C351.573,58.88,349.867,59.733,348.16,59.733 M366.933,68.267c-0.853,0-1.707,0-2.56,0
		c-4.267,0-8.533-4.267-7.68-9.387c0-5.12,4.267-8.533,9.387-7.68c0.853,0,2.56,0,3.413,0c5.12-0.853,8.533,3.413,9.387,7.68
		c0.853,4.267-3.413,8.533-7.68,9.387C369.493,68.267,367.787,68.267,366.933,68.267"/>
	<path style="fill:#D1D4D1;" d="M342.187,36.693c-0.853,0-1.707,0-1.707,0c-3.413-0.853-5.973-4.267-6.827-7.68
		c-2.56-2.56-3.413-5.973-2.56-9.387c1.707-4.267,6.827-6.827,11.093-5.12c1.707,0.853,2.56,0.853,4.267,1.707
		c1.707,0.853,3.413,2.56,4.267,5.12c0.853,1.707,0.853,4.267,0,6.827c0,0.853-0.853,1.707-0.853,2.56
		C349.013,34.133,345.6,36.693,342.187,36.693"/>
	<path style="fill:#D1D4D1;" d="M265.387,17.067L265.387,17.067c-3.413,0-5.973,0-8.533,0c-5.12,0-8.533-4.267-8.533-8.533
		c0-5.12,3.413-8.533,8.533-8.533l0,0c2.56,0,5.973,0,8.533,0c5.12,0,8.533,4.267,8.533,8.533
		C273.92,13.653,270.507,17.067,265.387,17.067 M307.2,22.187c-0.853,0-0.853,0-1.707,0c-2.56-0.853-5.12-0.853-7.68-1.707
		c-5.12-0.853-7.68-5.12-7.68-9.387c0.853-4.267,5.12-7.68,10.24-6.827c2.56,0.853,5.973,0.853,8.533,1.707
		c4.267,0.853,7.68,5.12,6.827,10.24C314.88,19.627,311.467,22.187,307.2,22.187"/>
	<path style="fill:#D1D4D1;" d="M215.893,20.48c-4.267,0-7.68-2.56-8.533-6.827c-0.853-4.267,2.56-9.387,6.827-9.387
		c2.56-0.853,5.973-0.853,8.533-0.853c4.267-0.853,8.533,2.56,9.387,7.68c0.853,4.267-2.56,8.533-7.68,9.387
		c-2.56,0-5.12,0.853-7.68,0.853C216.747,20.48,215.893,20.48,215.893,20.48L215.893,20.48z M174.933,30.72
		c-3.413,0-6.827-2.56-7.68-5.973c-1.707-4.267,0.853-9.387,5.12-11.093c2.56-0.853,5.12-1.707,8.533-2.56
		c4.267-1.707,9.387,0.853,10.24,5.973c1.707,4.267-0.853,9.387-5.973,10.24c-2.56,0.853-5.12,1.707-7.68,2.56
		C177.493,30.72,176.64,30.72,174.933,30.72L174.933,30.72z M137.387,47.787c-3.413,0-5.973-1.707-7.68-4.267
		c-2.56-4.267-0.853-9.387,3.413-11.947c2.56-1.707,5.12-2.56,7.68-4.267c4.267-1.707,9.387,0,11.093,3.413
		c1.707,3.413,0.853,9.387-3.413,11.093c-2.56,0.853-5.12,2.56-6.827,3.413C139.947,46.933,138.24,47.787,137.387,47.787
		L137.387,47.787z M102.4,70.827c-2.56,0-5.12-0.853-6.827-3.413c-2.56-3.413-2.56-9.387,1.707-11.947
		c2.56-1.707,4.267-3.413,6.827-5.12c3.413-2.56,9.387-1.707,11.947,1.707S117.76,61.44,114.347,64
		c-2.56,1.707-4.267,3.413-6.827,5.12C105.813,69.973,104.107,70.827,102.4,70.827L102.4,70.827z M425.813,84.48
		c-1.707,0-4.267-0.853-5.973-2.56s-4.267-3.413-5.973-5.12c-3.413-3.413-4.267-8.533-0.853-11.947
		c3.413-3.413,8.533-4.267,11.947-0.853c2.56,1.707,4.267,4.267,5.973,5.973c3.413,3.413,3.413,8.533,0,11.947
		C430.08,83.627,428.373,84.48,425.813,84.48L425.813,84.48z M71.68,98.987c-1.707,0-4.267-0.853-5.973-2.56
		c-3.413-3.413-3.413-8.533-0.853-11.947c1.707-2.56,4.267-4.267,5.973-5.973c3.413-3.413,8.533-3.413,11.947,0
		s3.413,8.533,0,11.947c-1.707,1.707-3.413,4.267-5.12,5.973C76.8,98.133,74.24,98.987,71.68,98.987L71.68,98.987z M453.973,115.2
		c-2.56,0-5.12-0.853-6.827-3.413s-3.413-4.267-5.12-5.973c-2.56-3.413-2.56-9.387,0.853-11.947c3.413-2.56,9.387-2.56,11.947,0.853
		c1.707,2.56,3.413,4.267,5.12,6.827c2.56,3.413,1.707,9.387-1.707,11.947C457.387,115.2,455.68,115.2,453.973,115.2L453.973,115.2z
		 M46.933,132.267c-1.707,0-3.413-0.853-4.267-1.707c-4.267-2.56-5.973-7.68-3.413-11.093c1.707-2.56,3.413-5.12,5.12-6.827
		c2.56-4.267,7.68-5.12,11.947-2.56c4.267,2.56,5.12,7.68,2.56,11.947c-1.707,2.56-2.56,4.267-4.267,6.827
		C52.053,130.56,49.493,132.267,46.933,132.267L46.933,132.267z M476.16,151.04c-3.413,0-5.973-1.707-7.68-4.267
		c-0.853-2.56-2.56-5.12-3.413-6.827c-2.56-4.267-0.853-9.387,3.413-11.947c4.267-2.56,9.387-0.853,11.947,3.413
		c1.707,2.56,2.56,5.12,4.267,7.68c2.56,4.267,0.853,9.387-3.413,11.093C478.72,150.187,477.013,151.04,476.16,151.04L476.16,151.04
		z M27.307,168.96c-0.853,0-2.56,0-3.413-0.853c-4.267-1.707-6.827-6.827-4.267-11.093c0.853-2.56,2.56-5.12,3.413-7.68
		c1.707-4.267,6.827-5.973,11.093-4.267c4.267,1.707,5.973,6.827,4.267,11.093c-0.853,2.56-2.56,5.12-3.413,7.68
		C34.133,167.253,30.72,168.96,27.307,168.96L27.307,168.96z M491.52,189.44c-3.413,0-6.827-2.56-8.533-5.973
		c-0.853-2.56-1.707-5.12-2.56-7.68c-1.707-4.267,0.853-9.387,5.12-11.093c4.267-1.707,9.387,0.853,11.093,5.12
		c0.853,2.56,1.707,5.12,2.56,8.533c1.707,4.267-0.853,9.387-5.12,11.093C493.227,189.44,492.373,189.44,491.52,189.44
		L491.52,189.44z M14.507,209.067c-0.853,0-0.853,0-1.707,0c-4.267-0.853-7.68-5.973-6.827-10.24
		c0.853-2.56,1.707-5.973,1.707-8.533c0.853-4.267,5.973-7.68,10.24-5.973c4.267,0.853,7.68,5.973,5.973,10.24
		c-0.853,2.56-1.707,5.12-1.707,7.68C22.187,206.507,18.773,209.067,14.507,209.067L14.507,209.067z M500.907,230.4
		c-4.267,0-7.68-3.413-8.533-7.68c0-2.56-0.853-5.12-0.853-7.68c-0.853-4.267,2.56-9.387,6.827-10.24
		c4.267-0.853,9.387,2.56,10.24,6.827c0.853,2.56,0.853,5.973,1.707,8.533c0.853,4.267-2.56,9.387-7.68,9.387
		C501.76,230.4,501.76,230.4,500.907,230.4L500.907,230.4z M8.533,250.027L8.533,250.027c-5.12,0-8.533-4.267-8.533-9.387
		c0-2.56,0-5.973,0.853-8.533c0-4.267,4.267-8.533,9.387-7.68c5.12,0.853,8.533,4.267,7.68,9.387c0,2.56-0.853,5.12-0.853,7.68
		C17.067,246.613,13.653,250.027,8.533,250.027L8.533,250.027z M503.467,271.36L503.467,271.36c-5.12,0-8.533-4.267-8.533-8.533
		c0-2.56,0-4.267,0-6.827v-0.853c0-5.12,3.413-8.533,8.533-8.533c5.12,0,8.533,3.413,8.533,8.533V256c0,2.56,0,5.12,0,7.68
		C512,267.947,507.733,271.36,503.467,271.36L503.467,271.36z M10.24,291.84c-4.267,0-7.68-3.413-8.533-7.68
		c0-2.56-0.853-5.973-0.853-8.533c0-5.12,3.413-8.533,7.68-9.387c5.12,0,8.533,3.413,9.387,7.68c0,2.56,0.853,5.12,0.853,7.68
		c0.853,4.267-2.56,8.533-7.68,9.387C10.24,291.84,10.24,291.84,10.24,291.84L10.24,291.84z M498.347,313.173
		c-0.853,0-0.853,0-1.707,0c-4.267-0.853-7.68-5.12-6.827-10.24c0.853-2.56,0.853-5.12,1.707-7.68
		c0.853-4.267,5.12-7.68,9.387-6.827s7.68,5.12,6.827,9.387c-0.853,2.56-0.853,5.973-1.707,8.533
		C506.027,310.613,502.613,313.173,498.347,313.173L498.347,313.173z M17.92,332.8c-3.413,0-6.827-2.56-8.533-5.973
		c-0.853-2.56-1.707-5.973-2.56-8.533c-0.853-4.267,1.707-9.387,5.973-10.24s9.387,1.707,10.24,5.973
		c0.853,2.56,1.707,5.12,1.707,7.68c1.707,4.267-1.707,9.387-5.973,10.24C19.627,332.8,18.773,332.8,17.92,332.8L17.92,332.8z
		 M487.253,353.28c-0.853,0-1.707,0-3.413-0.853c-4.267-1.707-6.827-6.827-5.12-11.093c0.853-2.56,1.707-5.12,2.56-7.68
		c1.707-4.267,6.827-6.827,11.093-5.12c4.267,1.707,6.827,6.827,5.12,11.093c-0.853,2.56-1.707,5.12-2.56,7.68
		C494.08,350.72,490.667,353.28,487.253,353.28L487.253,353.28z M33.28,372.053c-3.413,0-5.973-1.707-7.68-5.12
		c-0.853-2.56-2.56-5.12-3.413-7.68c-1.707-4.267,0-9.387,4.267-11.093c4.267-1.707,9.387,0,11.093,4.267
		c0.853,2.56,2.56,5.12,3.413,7.68c1.707,4.267,0,9.387-4.267,11.093C34.987,371.2,34.133,372.053,33.28,372.053L33.28,372.053z
		 M469.333,390.827c-1.707,0-3.413,0-4.267-0.853c-4.267-2.56-5.12-7.68-2.56-11.947c1.707-2.56,2.56-4.267,4.267-6.827
		c2.56-4.267,7.68-5.973,11.947-3.413c4.267,2.56,5.973,7.68,3.413,11.947c-1.707,2.56-2.56,5.12-4.267,7.68
		C474.453,389.12,471.893,390.827,469.333,390.827L469.333,390.827z M53.76,407.893c-2.56,0-5.12-0.853-6.827-3.413
		c-1.707-2.56-3.413-5.12-5.12-6.827c-2.56-4.267-1.707-9.387,2.56-11.947c4.267-2.56,9.387-1.707,11.947,2.56
		c1.707,2.56,3.413,4.267,4.267,6.827c2.56,4.267,1.707,9.387-1.707,11.947C57.173,407.04,55.467,407.893,53.76,407.893
		L53.76,407.893z M444.587,424.96c-1.707,0-4.267-0.853-5.12-1.707c-3.413-3.413-4.267-8.533-0.853-11.947
		c1.707-1.707,3.413-4.267,5.12-5.973c2.56-3.413,8.533-4.267,11.947-1.707c3.413,2.56,4.267,8.533,1.707,11.947
		c-1.707,2.56-3.413,4.267-5.12,6.827C449.707,423.253,447.147,424.96,444.587,424.96L444.587,424.96z M81.067,439.467
		c-2.56,0-4.267-0.853-5.973-2.56c-1.707-1.707-4.267-4.267-5.973-5.973c-3.413-3.413-3.413-8.533,0-11.947
		c3.413-3.413,8.533-3.413,11.947,0c1.707,1.707,3.413,4.267,5.973,5.973c3.413,3.413,3.413,8.533,0,11.947
		C85.333,438.613,82.773,439.467,81.067,439.467L81.067,439.467z M415.573,453.973c-2.56,0-5.12-0.853-6.827-3.413
		c-3.413-3.413-2.56-9.387,0.853-11.947c1.707-1.707,4.267-3.413,5.973-5.12c3.413-3.413,8.533-2.56,11.947,0.853
		c3.413,3.413,2.56,8.533-0.853,11.947c-2.56,1.707-4.267,3.413-6.827,5.973C418.987,453.12,417.28,453.973,415.573,453.973
		L415.573,453.973z M112.64,466.773c-1.707,0-3.413-0.853-5.12-1.707c-2.56-1.707-4.267-3.413-6.827-5.12
		c-3.413-2.56-4.267-8.533-1.707-11.947c2.56-3.413,8.533-4.267,11.947-1.707c1.707,1.707,4.267,3.413,6.827,5.12
		c4.267,2.56,5.12,7.68,1.707,11.947C117.76,465.067,115.2,466.773,112.64,466.773L112.64,466.773z M381.44,477.867
		c-2.56,0-5.973-1.707-7.68-4.267c-2.56-4.267-0.853-9.387,3.413-11.947c2.56-1.707,4.267-2.56,6.827-4.267
		c4.267-2.56,9.387-1.707,11.947,2.56c2.56,4.267,1.707,9.387-2.56,11.947c-2.56,1.707-5.12,3.413-7.68,4.267
		C384,477.867,382.293,477.867,381.44,477.867L381.44,477.867z M148.48,487.253c-0.853,0-2.56,0-3.413-0.853
		c-2.56-0.853-5.12-2.56-7.68-4.267c-4.267-2.56-5.973-7.68-3.413-11.093c2.56-4.267,7.68-5.973,11.093-3.413
		c2.56,0.853,5.12,2.56,6.827,3.413c4.267,1.707,5.973,6.827,4.267,11.093C155.307,485.547,151.893,487.253,148.48,487.253
		L148.48,487.253z M343.893,495.787c-3.413,0-6.827-1.707-7.68-5.12c-1.707-4.267,0.853-9.387,5.12-11.093
		c2.56-0.853,5.12-1.707,7.68-2.56c4.267-1.707,9.387,0,11.093,4.267s0,9.387-4.267,11.093c-2.56,0.853-5.12,2.56-7.68,3.413
		C345.6,495.787,344.747,495.787,343.893,495.787L343.893,495.787z M187.733,502.613c-0.853,0-1.707,0-2.56,0
		c-2.56-0.853-5.973-1.707-8.533-2.56c-4.267-1.707-6.827-5.973-5.12-11.093c1.707-4.267,5.973-6.827,11.093-5.12
		c2.56,0.853,5.12,1.707,7.68,2.56c4.267,1.707,6.827,5.973,5.973,10.24C194.56,500.053,191.147,502.613,187.733,502.613
		L187.733,502.613z M303.787,507.733c-4.267,0-7.68-2.56-8.533-6.827c-0.853-4.267,1.707-9.387,6.827-10.24
		c2.56-0.853,5.12-0.853,7.68-1.707c4.267-0.853,9.387,1.707,10.24,6.827c0.853,4.267-1.707,9.387-6.827,10.24
		c-2.56,0.853-5.973,0.853-8.533,1.707H303.787L303.787,507.733z M228.693,510.293h-0.853c-2.56,0-5.973-0.853-8.533-0.853
		c-4.267-0.853-7.68-5.12-6.827-9.387s5.12-7.68,9.387-6.827c2.56,0,5.12,0.853,7.68,0.853c4.267,0.853,7.68,5.12,7.68,9.387
		C236.373,506.88,232.96,510.293,228.693,510.293L228.693,510.293z M261.973,512c-4.267,0-8.533-3.413-8.533-8.533
		c0-5.12,3.413-8.533,8.533-8.533c2.56,0,5.12,0,7.68,0c4.267,0,8.533,3.413,9.387,7.68c0,5.12-3.413,8.533-7.68,9.387
		C267.947,512,265.387,512,261.973,512L261.973,512z"/>
	<path style="fill:#D1D4D1;" d="M375.467,373.76c-1.707,0-4.267-0.853-5.973-2.56c-0.853-0.853-1.707-0.853-2.56-1.707
		c-4.267-2.56-5.12-7.68-2.56-11.947c1.707-3.413,5.973-4.267,9.387-3.413c3.413-1.707,6.827-0.853,9.387,0.853
		c3.413,3.413,4.267,8.533,0.853,11.947c-0.853,0.853-1.707,2.56-2.56,3.413C380.587,372.907,378.027,373.76,375.467,373.76"/>
	<path style="fill:#D1D4D1;" d="M412.16,307.2c-0.853,0-1.707,0-2.56,0c-4.267-0.853-6.827-5.973-5.973-10.24
		c0.853-2.56,1.707-5.12,1.707-7.68c0.853-4.267,5.12-7.68,10.24-6.827c4.267,0.853,7.68,5.973,6.827,10.24
		c-0.853,2.56-1.707,5.12-1.707,8.533C419.84,304.64,416.427,307.2,412.16,307.2 M396.8,343.893c-1.707,0-2.56,0-4.267-0.853
		c-4.267-2.56-5.12-7.68-3.413-11.947c0.853-2.56,2.56-4.267,3.413-6.827c1.707-4.267,7.68-5.973,11.093-3.413
		c4.267,1.707,5.973,7.68,3.413,11.093c-0.853,2.56-2.56,5.12-4.267,7.68C402.773,343.04,400.213,343.893,396.8,343.893"/>
	<path style="fill:#D1D4D1;" d="M271.36,103.253L271.36,103.253c-3.413,0-5.973-0.853-8.533-0.853c-5.12,0-8.533-4.267-8.533-8.533
		c0-5.12,4.267-8.533,8.533-8.533c2.56,0,5.973,0,8.533,0.853c5.12,0.853,8.533,4.267,7.68,9.387
		C279.893,99.84,275.627,103.253,271.36,103.253 M223.573,105.813c-4.267,0-7.68-2.56-8.533-6.827
		c-0.853-4.267,1.707-9.387,6.827-10.24c2.56-0.853,5.12-0.853,8.533-1.707c5.12-0.853,9.387,2.56,9.387,6.827
		c0.853,4.267-2.56,9.387-6.827,9.387c-2.56,0-5.12,0.853-7.68,1.707C224.427,105.813,224.427,105.813,223.573,105.813
		 M310.613,111.787c-0.853,0-1.707,0-2.56-0.853c-2.56-0.853-5.12-1.707-6.827-2.56c-4.267-1.707-6.827-5.973-5.973-10.24
		c1.707-4.267,5.973-6.827,10.24-5.973c2.56,0.853,5.12,1.707,7.68,2.56c4.267,1.707,6.827,6.827,5.12,11.093
		C317.44,110.08,314.027,111.787,310.613,111.787 M185.173,118.613c-3.413,0-5.973-1.707-7.68-5.12
		c-1.707-4.267,0-9.387,4.267-11.093c2.56-0.853,5.12-2.56,7.68-3.413c4.267-1.707,9.387,0,11.093,4.267
		c1.707,4.267,0,9.387-4.267,11.093c-2.56,0.853-4.267,1.707-6.827,3.413C187.733,118.613,186.88,118.613,185.173,118.613
		 M346.453,130.56c-1.707,0-3.413-0.853-5.12-1.707c-1.707-1.707-4.267-2.56-6.827-4.267c-4.267-2.56-5.12-7.68-2.56-11.947
		c2.56-4.267,7.68-5.12,11.947-2.56c2.56,1.707,5.12,3.413,6.827,4.267c4.267,2.56,5.12,7.68,2.56,11.947
		C352.427,128.853,349.013,130.56,346.453,130.56 M151.893,140.8c-2.56,0-5.12-0.853-6.827-3.413
		c-3.413-3.413-2.56-9.387,0.853-11.947c2.56-1.707,4.267-3.413,6.827-5.12c3.413-2.56,9.387-1.707,11.947,1.707
		c2.56,3.413,1.707,9.387-1.707,11.947c-1.707,1.707-4.267,3.413-5.973,5.12C155.307,139.947,153.6,140.8,151.893,140.8
		 M377.173,157.013c-2.56,0-4.267-0.853-5.973-2.56c-1.707-1.707-3.413-3.413-5.12-5.973c-3.413-3.413-3.413-8.533,0-11.947
		c3.413-3.413,8.533-3.413,11.947,0c1.707,1.707,4.267,4.267,5.973,5.973c3.413,3.413,2.56,8.533-0.853,11.947
		C380.587,156.16,378.88,157.013,377.173,157.013 M124.587,169.813c-1.707,0-3.413-0.853-5.12-1.707
		c-3.413-2.56-4.267-7.68-1.707-11.947c1.707-2.56,3.413-4.267,5.12-6.827c2.56-3.413,8.533-4.267,11.947-1.707
		c3.413,2.56,4.267,8.533,1.707,11.947c-1.707,1.707-3.413,4.267-4.267,5.973C129.707,168.96,127.147,169.813,124.587,169.813
		 M400.213,189.44c-3.413,0-5.973-1.707-7.68-4.267c-0.853-2.56-2.56-4.267-3.413-6.827c-2.56-4.267-0.853-9.387,3.413-11.947
		s9.387-0.853,11.947,3.413c1.707,2.56,2.56,5.12,4.267,7.68c2.56,4.267,0.853,9.387-3.413,11.093
		C402.773,189.44,401.067,189.44,400.213,189.44 M104.96,204.8c-0.853,0-1.707,0-3.413-0.853c-4.267-1.707-6.827-6.827-5.12-11.093
		c0.853-2.56,2.56-5.12,3.413-7.68c1.707-4.267,6.827-5.973,11.093-4.267c4.267,1.707,5.973,6.827,4.267,11.093
		c-0.853,2.56-1.707,4.267-2.56,6.827C111.787,203.093,108.373,204.8,104.96,204.8 M413.867,226.987c-4.267,0-7.68-2.56-8.533-6.827
		c-0.853-2.56-0.853-5.12-1.707-7.68c-1.707-4.267,1.707-9.387,5.973-10.24c4.267-1.707,9.387,1.707,10.24,5.973
		c0.853,2.56,1.707,5.12,2.56,8.533c0.853,4.267-1.707,9.387-5.973,10.24C414.72,226.987,414.72,226.987,413.867,226.987
		 M95.573,244.053H94.72c-4.267-0.853-7.68-5.12-7.68-9.387c0-2.56,0.853-5.973,1.707-8.533c0.853-4.267,5.12-7.68,10.24-6.827
		c4.267,0.853,7.68,5.12,6.827,10.24c-0.853,2.56-0.853,5.12-0.853,7.68C103.253,240.64,98.987,244.053,95.573,244.053
		 M418.133,267.093L418.133,267.093c-5.12,0-8.533-4.267-8.533-8.533V256c0-1.707,0-3.413,0-5.12c0-5.12,3.413-8.533,8.533-8.533
		c4.267,0,8.533,3.413,8.533,8.533c0,1.707,0,3.413,0,5.973v2.56C426.667,263.68,422.4,267.093,418.133,267.093 M94.72,284.16
		c-4.267,0-7.68-3.413-8.533-7.68c0-2.56-0.853-5.973-0.853-8.533c0-5.12,3.413-8.533,7.68-9.387c5.12,0,8.533,3.413,9.387,7.68
		c0,2.56,0.853,5.12,0.853,7.68c0.853,4.267-2.56,8.533-7.68,9.387C95.573,284.16,95.573,284.16,94.72,284.16 M104.96,323.413
		c-3.413,0-6.827-1.707-7.68-5.12c-0.853-2.56-1.707-5.12-2.56-7.68c-1.707-4.267,0.853-9.387,5.12-11.093
		c4.267-1.707,9.387,0.853,11.093,5.12c0.853,2.56,1.707,5.12,2.56,6.827c1.707,4.267-0.853,9.387-5.12,11.093
		C106.667,322.56,105.813,323.413,104.96,323.413 M123.733,358.4c-2.56,0-5.12-0.853-6.827-3.413
		c-1.707-2.56-3.413-4.267-5.12-6.827c-2.56-4.267-1.707-9.387,2.56-11.947c4.267-2.56,9.387-1.707,11.947,2.56
		c1.707,2.56,2.56,4.267,4.267,5.973c2.56,3.413,1.707,9.387-1.707,11.947C127.147,357.547,125.44,358.4,123.733,358.4
		 M151.04,388.267c-1.707,0-4.267-0.853-5.12-1.707c-2.56-1.707-4.267-3.413-5.973-5.973c-3.413-3.413-3.413-8.533,0-11.947
		c3.413-3.413,8.533-3.413,11.947,0c1.707,1.707,3.413,3.413,5.973,5.12c3.413,3.413,4.267,8.533,0.853,11.947
		C156.16,387.413,153.6,388.267,151.04,388.267 M184.32,410.453c-0.853,0-2.56,0-3.413-0.853c-2.56-0.853-5.12-2.56-7.68-4.267
		c-4.267-2.56-5.973-7.68-3.413-11.947c2.56-4.267,7.68-5.973,11.947-3.413c2.56,0.853,4.267,2.56,6.827,3.413
		c4.267,1.707,5.973,6.827,4.267,11.093C191.147,408.747,187.733,410.453,184.32,410.453 M294.4,422.4
		c-3.413,0-7.68-2.56-8.533-6.827c-0.853-4.267,1.707-9.387,5.973-10.24c2.56-0.853,5.12-1.707,7.68-1.707
		c4.267-1.707,9.387,0.853,10.24,5.973c1.707,4.267-0.853,9.387-5.973,10.24c-2.56,0.853-5.12,1.707-8.533,2.56
		C296.107,421.547,295.253,422.4,294.4,422.4 M222.72,423.253c-0.853,0-0.853,0-1.707,0c-2.56-0.853-5.12-0.853-8.533-1.707
		c-4.267-0.853-7.68-5.973-5.973-10.24c0.853-4.267,5.973-6.827,10.24-5.973c2.56,0.853,5.12,0.853,7.68,1.707
		c4.267,0.853,7.68,5.12,6.827,10.24C230.4,420.693,226.987,423.253,222.72,423.253 M256,426.667h-1.707
		c-5.12,0-8.533-3.413-8.533-8.533s3.413-8.533,8.533-8.533H256c1.707,0,4.267,0,5.973,0c4.267,0,8.533,3.413,8.533,8.533
		s-3.413,8.533-8.533,8.533C261.12,426.667,258.56,426.667,256,426.667"/>
	<path style="fill:#D1D4D1;" d="M332.8,407.04c-3.413,0-5.973-1.707-7.68-4.267c-1.707-3.413-0.853-6.827,0.853-9.387
		c0-3.413,1.707-6.827,5.12-8.533c4.267-1.707,9.387,0.853,11.093,5.12c0,0.853,0.853,1.707,0.853,2.56
		c2.56,4.267,0.853,9.387-3.413,11.947c-1.707,0.853-2.56,1.707-4.267,2.56C335.36,407.04,333.653,407.04,332.8,407.04"/>
	<path style="fill:#D1D4D1;" d="M349.867,368.64c-3.413,0-6.827-2.56-7.68-5.973c-1.707-4.267,0.853-9.387,5.12-11.093
		c1.707-0.853,4.267-0.853,5.973-1.707c4.267-0.853,9.387,2.56,9.387,6.827c0.853,4.267-2.56,9.387-6.827,9.387
		c-0.853,0-1.707,0-2.56,0.853C352.427,367.787,351.573,368.64,349.867,368.64 M334.507,383.147c-0.853,0-1.707,0-3.413-0.853
		c-4.267-1.707-6.827-6.827-5.12-11.093c0.853-1.707,1.707-3.413,2.56-5.12c2.56-4.267,7.68-5.12,11.947-3.413
		c4.267,2.56,5.12,7.68,2.56,11.947c-0.853,0.853-0.853,1.707-1.707,2.56C341.333,381.44,337.92,383.147,334.507,383.147"/>
</g>
<path style="fill:#D25627;" d="M196.267,162.133c-18.773,0-34.133,15.36-34.133,34.133s15.36,34.133,34.133,34.133
	s34.133-15.36,34.133-34.133S215.04,162.133,196.267,162.133"/>
<path style="fill:#F29C1F;" d="M358.4,349.867c-18.773,0-34.133,15.36-34.133,34.133c0,18.773,15.36,34.133,34.133,34.133
	s34.133-15.36,34.133-34.133C392.533,365.227,377.173,349.867,358.4,349.867"/>
<path style="fill:#71C285;" d="M366.933,0C348.16,0,332.8,15.36,332.8,34.133s15.36,34.133,34.133,34.133
	s34.133-15.36,34.133-34.133S385.707,0,366.933,0"/>
<path style="fill:#CC66A1;" d="M256,221.867c-18.773,0-34.133,15.36-34.133,34.133s15.36,34.133,34.133,34.133
	s34.133-15.36,34.133-34.133S274.773,221.867,256,221.867"/>
<g>
</g>
<g>
</g>
<g>
</g>
<g>
</g>
<g>
</g>
<g>
</g>
<g>
</g>
<g>
</g>
<g>
</g>
<g>
</g>
<g>
</g>
<g>
</g>
<g>
</g>
<g>
</g>
<g>
</g>
</svg>
